<svg width="300" height="300" viewBox="0 0 300 300" fill="none" xmlns="http://www.w3.org/2000/svg">
  <rect x="0.5" y="0.5" width="299" height="299" fill="auto" fill-rule="evenodd"/>
  <rect x="0.5" y="0.5" width="299" height="299" stroke-width="1" stroke="#969696"/>
  <path d="M66.2955 141.045H68.4091V153.523C68.4091 154.636 68.2045 155.582 67.7955 156.361C67.3864 157.139 66.8097 157.73 66.0653 158.134C65.321 158.537 64.4432 158.739 63.4318 158.739C62.4773 158.739 61.6278 158.565 60.8835 158.219C60.1392 157.866 59.554 157.366 59.1278 156.719C58.7017 156.071 58.4886 155.301 58.4886 154.409H60.5682C60.5682 154.903 60.6903 155.335 60.9347 155.705C61.1847 156.068 61.5256 156.352 61.9574 156.557C62.3892 156.761 62.8807 156.864 63.4318 156.864C64.0398 156.864 64.5568 156.736 64.983 156.48C65.4091 156.224 65.733 155.849 65.9545 155.355C66.1818 154.855 66.2955 154.244 66.2955 153.523V141.045ZM84.0994 141.045H86.2131V152.602C86.2131 153.795 85.9318 154.861 85.3693 155.798C84.8125 156.73 84.0256 157.466 83.0085 158.006C81.9915 158.54 80.7983 158.807 79.429 158.807C78.0597 158.807 76.8665 158.54 75.8494 158.006C74.8324 157.466 74.0426 156.73 73.4801 155.798C72.9233 154.861 72.6449 153.795 72.6449 152.602V141.045H74.7585V152.432C74.7585 153.284 74.946 154.043 75.321 154.707C75.696 155.366 76.2301 155.886 76.9233 156.267C77.6222 156.642 78.4574 156.83 79.429 156.83C80.4006 156.83 81.2358 156.642 81.9347 156.267C82.6335 155.886 83.1676 155.366 83.5369 154.707C83.9119 154.043 84.0994 153.284 84.0994 152.432V141.045ZM99.9794 145.409C99.8771 144.545 99.4624 143.875 98.7351 143.398C98.0078 142.92 97.1158 142.682 96.0589 142.682C95.2862 142.682 94.6101 142.807 94.0305 143.057C93.4567 143.307 93.0078 143.651 92.6839 144.088C92.3658 144.526 92.2067 145.023 92.2067 145.58C92.2067 146.045 92.3175 146.446 92.5391 146.781C92.7663 147.111 93.0561 147.386 93.4084 147.608C93.7607 147.824 94.13 148.003 94.5163 148.145C94.9027 148.281 95.2578 148.392 95.5817 148.477L97.3544 148.955C97.8089 149.074 98.3146 149.239 98.8714 149.449C99.4339 149.659 99.9709 149.946 100.482 150.31C100.999 150.668 101.425 151.128 101.761 151.69C102.096 152.253 102.263 152.943 102.263 153.761C102.263 154.705 102.016 155.557 101.522 156.318C101.033 157.08 100.317 157.685 99.3743 158.134C98.4368 158.582 97.2976 158.807 95.9567 158.807C94.7067 158.807 93.6243 158.605 92.7095 158.202C91.8004 157.798 91.0845 157.236 90.5618 156.514C90.0447 155.793 89.7521 154.955 89.6839 154H91.8658C91.9226 154.659 92.1442 155.205 92.5305 155.636C92.9226 156.062 93.4169 156.381 94.0135 156.591C94.6158 156.795 95.2635 156.898 95.9567 156.898C96.7635 156.898 97.4879 156.767 98.13 156.506C98.772 156.239 99.2805 155.869 99.6555 155.398C100.031 154.92 100.218 154.364 100.218 153.727C100.218 153.148 100.056 152.676 99.7322 152.312C99.4084 151.949 98.9822 151.653 98.4538 151.426C97.9254 151.199 97.3544 151 96.7408 150.83L94.593 150.216C93.2294 149.824 92.1499 149.264 91.3544 148.537C90.5589 147.81 90.1612 146.858 90.1612 145.682C90.1612 144.705 90.4254 143.852 90.9538 143.125C91.4879 142.392 92.2038 141.824 93.1016 141.42C94.005 141.011 95.0135 140.807 96.1271 140.807C97.2521 140.807 98.2521 141.009 99.1271 141.412C100.002 141.81 100.695 142.355 101.207 143.048C101.724 143.741 101.996 144.528 102.025 145.409H99.9794ZM104.784 142.92V141.045H117.875V142.92H112.386V158.5H110.273V142.92H104.784ZM128.603 158.5H126.387L132.796 141.045H134.978L141.387 158.5H139.171L133.955 143.807H133.819L128.603 158.5ZM129.421 151.682H138.353V153.557H129.421V151.682ZM157.947 141.045V158.5H155.901L146.39 144.795H146.219V158.5H144.106V141.045H146.151L155.697 154.784H155.867V141.045H157.947ZM171.04 141.045V158.5H168.926V141.045H171.04ZM175.278 141.045H177.8L183.732 155.534H183.937L189.869 141.045H192.391V158.5H190.414V145.239H190.244L184.789 158.5H182.88L177.425 145.239H177.255V158.5H175.278V141.045ZM197.345 158.5H195.129L201.538 141.045H203.72L210.129 158.5H207.913L202.697 143.807H202.561L197.345 158.5ZM198.163 151.682H207.095V153.557H198.163V151.682ZM223.96 146.5C223.772 145.926 223.525 145.412 223.218 144.957C222.917 144.497 222.556 144.105 222.136 143.781C221.721 143.457 221.249 143.21 220.721 143.04C220.192 142.869 219.613 142.784 218.982 142.784C217.948 142.784 217.008 143.051 216.161 143.585C215.315 144.119 214.641 144.906 214.141 145.946C213.641 146.986 213.391 148.261 213.391 149.773C213.391 151.284 213.644 152.56 214.15 153.599C214.656 154.639 215.34 155.426 216.204 155.96C217.067 156.494 218.039 156.761 219.119 156.761C220.119 156.761 220.999 156.548 221.761 156.122C222.528 155.69 223.124 155.082 223.55 154.298C223.982 153.509 224.198 152.58 224.198 151.511L224.846 151.648H219.596V149.773H226.244V151.648C226.244 153.085 225.937 154.335 225.323 155.398C224.715 156.46 223.874 157.284 222.8 157.869C221.732 158.449 220.505 158.739 219.119 158.739C217.573 158.739 216.215 158.375 215.045 157.648C213.88 156.92 212.971 155.886 212.317 154.545C211.67 153.205 211.346 151.614 211.346 149.773C211.346 148.392 211.531 147.151 211.9 146.048C212.275 144.94 212.803 143.997 213.485 143.219C214.167 142.44 214.974 141.844 215.906 141.429C216.837 141.014 217.863 140.807 218.982 140.807C219.903 140.807 220.761 140.946 221.556 141.224C222.357 141.497 223.07 141.886 223.695 142.392C224.326 142.892 224.852 143.491 225.272 144.19C225.692 144.884 225.982 145.653 226.141 146.5H223.96ZM229.864 158.5V141.045H240.398V142.92H231.977V148.818H239.852V150.693H231.977V156.625H240.534V158.5H229.864Z" fill="#969696"/>
</svg>